<?xml version="1.0" standalone="no"?>
<!DOCTYPE svg PUBLIC "-//W3C//DTD SVG 20010904//EN"
 "http://www.w3.org/TR/2001/REC-SVG-20010904/DTD/svg10.dtd">
<svg version="1.0" xmlns="http://www.w3.org/2000/svg"
 width="700.000000pt" height="700.000000pt" viewBox="0 0 700.000000 700.000000"
 preserveAspectRatio="xMidYMid meet">
<metadata>
Created by potrace 1.11, written by Peter Selinger 2001-2013
</metadata>
<g transform="translate(0.000000,700.000000) scale(0.100000,-0.100000)"
fill="#000000" stroke="none">
<path d="M2229 6996 c-2 -2 -20 -7 -40 -10 -119 -18 -264 -85 -371 -170 -121
-96 -237 -275 -273 -423 -54 -213 -22 -439 87 -624 48 -81 178 -221 248 -265
295 -185 635 -182 914 8 122 83 207 183 274 321 54 112 76 209 77 337 0 132
-8 190 -41 281 -75 207 -217 367 -411 463 -112 56 -201 77 -339 81 -67 3 -123
3 -125 1z m250 -250 c216 -55 389 -242 428 -461 44 -251 -86 -509 -312 -620
-97 -48 -180 -65 -290 -61 -153 7 -270 60 -385 176 -47 47 -85 97 -103 133
-38 78 -67 197 -67 272 0 107 49 258 110 340 42 56 144 144 201 172 61 30 146
58 199 65 54 7 158 0 219 -16z"/>
<path d="M2202 6628 c-89 -27 -149 -65 -219 -138 -57 -60 -113 -196 -113 -276
l0 -31 115 1 c109 0 115 1 116 21 1 34 34 105 64 137 33 34 105 71 142 71 26
0 25 -6 26 142 l0 90 -37 0 c-20 1 -62 -7 -94 -17z"/>
<path d="M4998 5136 c-1 -2 -37 -6 -78 -10 -530 -43 -952 -503 -950 -1034 0
-124 5 -169 31 -267 118 -459 523 -780 997 -789 455 -9 863 278 1011 709 111
327 53 692 -153 965 -66 88 -99 122 -183 190 -162 131 -366 213 -563 226 -47
3 -90 7 -97 9 -6 2 -13 2 -15 1z m162 -250 c14 -3 41 -9 60 -12 19 -4 40 -10
45 -14 6 -4 24 -11 41 -14 33 -7 163 -79 203 -111 105 -87 167 -160 225 -266
201 -368 84 -829 -269 -1063 -399 -265 -938 -131 -1165 289 -30 55 -56 117
-65 155 -55 220 -38 413 50 591 142 288 434 464 750 454 55 -2 111 -6 125 -9z"/>
<path d="M5017 4674 c0 -60 2 -112 2 -115 1 -4 22 -10 49 -13 73 -11 142 -36
197 -72 66 -43 74 -51 115 -104 61 -79 87 -139 96 -225 3 -27 8 -52 11 -55 2
-3 56 -5 118 -6 l114 0 -5 50 c-33 345 -294 615 -623 642 l-76 6 2 -108z"/>
<path d="M5415 3843 c-15 -25 -47 -65 -71 -88 l-44 -43 70 -91 c39 -50 73 -91
76 -91 23 0 204 226 204 254 0 6 -106 60 -182 93 -26 11 -28 10 -53 -34z"/>
<path d="M2127 2564 c-1 -1 -29 -4 -62 -8 -33 -3 -75 -10 -93 -15 -18 -6 -33
-9 -35 -9 -9 4 -126 -31 -194 -57 -370 -146 -658 -467 -762 -852 -60 -220 -60
-463 -1 -678 79 -283 239 -513 485 -701 36 -27 68 -47 185 -111 83 -46 261
-101 393 -121 62 -10 322 -8 370 2 15 3 37 8 50 10 147 26 321 98 462 192 180
119 323 276 422 464 39 73 91 196 98 229 1 9 8 36 15 61 26 95 38 219 35 350
-2 74 -6 142 -9 150 -3 8 -7 31 -10 51 -13 90 -58 226 -110 328 -119 238 -289
417 -521 550 -133 76 -322 140 -465 157 -51 6 -248 13 -253 8z m183 -238 c92
-7 116 -11 205 -38 390 -114 688 -462 739 -863 19 -149 11 -271 -29 -429 -20
-79 -81 -210 -141 -303 -47 -73 -201 -227 -274 -274 -251 -164 -503 -216 -795
-165 -173 31 -376 135 -518 265 -46 43 -137 153 -166 201 -74 124 -131 272
-146 376 -4 27 -9 58 -11 69 -19 97 10 355 52 468 114 302 358 544 651 643 70
24 203 50 268 53 33 2 62 4 63 6 2 2 9 2 15 0 7 -2 46 -6 87 -9z"/>
<path d="M2127 2214 c-1 -1 -21 -4 -44 -8 -190 -25 -378 -120 -519 -260 -169
-168 -263 -374 -278 -612 l-4 -51 117 1 116 1 8 70 c36 330 297 591 625 623
l67 7 0 115 0 115 -43 0 c-24 0 -44 0 -45 -1z"/>
<path d="M1428 1037 c-54 -17 -98 -36 -98 -42 0 -17 65 -158 93 -203 l28 -43
82 57 c117 82 112 74 85 120 -13 21 -33 61 -45 89 -11 27 -27 51 -35 52 -7 1
-57 -13 -110 -30z"/>
</g>
</svg>
